<?xml version="1.0" encoding="UTF-8" ?>
<!DOCTYPE svg PUBLIC "-//W3C//DTD SVG 1.1//EN" "http://www.w3.org/Graphics/SVG/1.1/DTD/svg11.dtd">
<svg width="332pt" height="159pt" viewBox="0 0 332 159" version="1.1" xmlns="http://www.w3.org/2000/svg">
<g id="#56307aff">
<path fill="#56307a" opacity="1.00" d=" M 51.40 0.00 L 55.23 0.00 C 60.80 0.39 66.03 3.60 68.72 8.52 C 73.38 16.83 73.16 26.76 72.47 35.98 C 71.70 42.14 69.68 48.67 64.75 52.79 C 59.15 57.35 50.82 57.71 44.46 54.59 C 38.40 51.35 35.43 44.48 34.40 37.99 C 33.11 29.37 33.21 20.29 36.15 12.00 C 38.42 5.51 44.37 0.33 51.40 0.00 M 50.38 9.23 C 45.74 12.87 45.57 19.47 45.13 24.86 C 45.08 31.59 44.75 38.88 48.14 44.95 C 49.89 48.27 54.68 49.23 57.32 46.39 C 60.69 42.46 61.13 36.94 61.39 31.99 C 61.40 25.14 61.94 17.73 58.41 11.57 C 56.93 8.75 53.14 7.38 50.38 9.23 Z" />
<path fill="#56307a" opacity="1.00" d=" M 181.71 0.00 L 185.91 0.00 C 190.92 0.55 195.73 3.13 198.48 7.42 C 202.81 14.03 203.40 22.26 203.32 29.95 C 203.11 37.10 202.05 44.76 197.47 50.53 C 191.84 57.52 180.71 58.46 173.41 53.65 C 167.66 49.74 165.37 42.64 164.53 36.04 C 163.68 26.98 163.68 17.21 168.04 8.96 C 170.63 3.81 176.01 0.47 181.71 0.00 M 181.26 9.04 C 178.39 10.54 177.28 13.91 176.54 16.85 C 175.37 22.41 175.13 28.16 175.65 33.82 C 176.11 37.95 176.63 42.39 179.20 45.82 C 181.09 48.43 185.26 48.98 187.52 46.53 C 191.42 42.41 191.62 36.30 191.88 30.95 C 191.91 24.58 192.13 17.79 189.13 11.97 C 187.82 9.13 184.12 7.41 181.26 9.04 Z" />
<path fill="#56307a" opacity="1.00" d=" M 1.59 1.61 C 5.08 1.16 8.65 1.40 12.17 1.41 C 12.35 16.14 12.23 30.88 12.23 45.61 C 19.07 45.65 25.90 45.57 32.74 45.66 C 32.19 48.84 31.53 52.00 30.59 55.09 C 20.91 55.28 11.24 55.15 1.56 55.16 C 1.35 37.32 1.26 19.45 1.59 1.61 Z" />
<path fill="#56307a" opacity="1.00" d=" M 78.60 1.57 C 81.72 1.24 84.88 1.37 88.01 1.37 C 92.60 9.72 97.00 18.18 101.50 26.58 C 103.36 30.01 104.70 33.70 105.84 37.42 C 105.71 25.42 105.50 13.41 105.79 1.41 C 108.88 1.38 111.97 1.38 115.06 1.42 C 115.00 19.33 115.27 37.24 114.91 55.14 C 112.21 55.18 109.50 55.19 106.80 55.22 C 101.53 45.75 96.56 36.12 91.37 26.60 C 89.85 23.83 88.68 20.87 87.48 17.95 C 87.89 29.32 87.60 40.70 87.71 52.07 C 87.61 53.34 88.15 55.44 86.12 55.13 C 83.71 55.32 81.27 55.29 78.87 55.06 C 78.16 53.48 78.50 51.66 78.40 49.98 C 78.60 33.85 78.16 17.69 78.60 1.57 Z" />
<path fill="#56307a" opacity="1.00" d=" M 122.77 1.37 C 131.41 1.87 140.44 0.06 148.74 3.13 C 155.26 5.50 158.27 12.55 158.96 18.98 C 159.99 27.33 159.98 36.11 157.12 44.11 C 155.16 49.53 150.22 53.53 144.56 54.50 C 137.37 55.76 130.02 55.00 122.76 55.14 C 122.70 37.22 122.68 19.29 122.77 1.37 M 133.41 10.05 C 133.39 22.18 133.44 34.32 133.38 46.45 C 138.33 46.89 144.84 46.19 146.50 40.56 C 148.85 32.56 149.03 23.56 146.41 15.61 C 144.51 10.25 138.25 9.70 133.41 10.05 Z" />
<path fill="#56307a" opacity="1.00" d=" M 209.50 1.43 C 212.66 1.37 215.81 1.38 218.97 1.37 C 225.21 13.19 232.23 24.68 237.08 37.17 C 236.60 25.26 236.89 13.33 236.89 1.41 C 239.91 1.38 242.93 1.37 245.95 1.42 C 246.02 19.33 245.91 37.26 245.93 55.18 C 243.14 55.19 240.35 55.17 237.57 55.08 C 231.40 42.62 223.85 30.83 218.51 17.97 C 218.81 30.33 218.60 42.71 218.64 55.07 C 215.61 55.17 212.59 55.19 209.56 55.19 C 209.24 37.28 209.36 19.35 209.50 1.43 Z" />
<path fill="#56307a" opacity="1.00" d=" M 261.32 33.09 C 279.03 38.53 296.64 45.35 311.75 56.26 C 321.08 63.06 329.60 72.18 332.00 83.84 L 332.00 92.64 C 330.06 104.00 321.86 112.89 313.06 119.69 C 299.93 129.58 284.64 136.10 269.17 141.38 C 235.08 152.68 199.17 157.17 163.43 159.00 L 128.41 159.00 C 84.98 157.19 40.86 151.39 0.64 134.08 C 12.28 136.65 23.81 139.73 35.61 141.55 C 76.30 148.44 117.83 149.82 158.97 146.95 C 194.19 144.14 229.61 138.56 262.71 125.76 C 275.84 120.47 288.88 114.08 299.31 104.32 C 305.67 98.22 311.11 90.11 310.92 80.97 C 310.89 71.92 305.38 63.97 299.04 57.97 C 288.20 47.94 274.65 41.51 261.05 36.11 C 261.12 35.35 261.25 33.84 261.32 33.09 Z" />
</g>
<g id="#c41a85ff">
<path fill="#c41a85" opacity="1.00" d=" M 8.55 69.61 C 14.79 66.05 22.62 68.30 27.59 73.01 C 26.68 74.41 25.76 75.80 24.82 77.18 C 21.42 75.06 17.67 71.71 13.36 73.21 C 9.17 74.40 7.63 79.07 7.10 82.93 C 6.15 90.07 6.20 97.43 7.79 104.47 C 8.73 108.22 10.76 112.52 14.94 113.37 C 18.92 114.15 22.14 111.09 25.22 109.12 C 26.17 110.46 27.13 111.79 28.10 113.12 C 22.91 118.60 13.68 120.33 7.44 115.66 C 1.67 111.07 0.53 103.15 0.00 96.25 L 0.00 88.29 C 0.64 81.54 2.04 73.28 8.55 69.61 Z" />
<path fill="#c41a85" opacity="1.00" d=" M 42.38 68.48 C 47.83 66.89 54.45 68.32 57.91 73.05 C 62.16 78.75 62.72 86.17 62.88 93.03 C 62.75 99.92 62.22 107.35 58.03 113.11 C 52.53 120.78 39.02 119.99 34.57 111.59 C 30.22 103.48 30.36 93.79 31.34 84.88 C 32.17 78.18 35.26 70.47 42.38 68.48 M 44.29 73.22 C 40.85 74.27 39.09 77.85 38.41 81.13 C 36.97 88.32 37.03 95.75 37.96 103.00 C 38.41 105.84 39.12 108.80 41.02 111.05 C 44.17 114.61 50.72 114.32 53.27 110.19 C 55.71 106.30 56.07 101.53 56.21 97.06 C 56.13 90.41 56.82 83.39 53.88 77.20 C 52.28 73.67 47.91 71.93 44.29 73.22 Z" />
<path fill="#c41a85" opacity="1.00" d=" M 150.88 70.72 C 157.03 65.87 166.26 67.64 171.46 73.06 C 170.61 74.47 169.72 75.85 168.82 77.23 C 165.42 75.03 161.62 71.65 157.27 73.23 C 152.76 74.60 151.50 79.77 150.93 83.88 C 150.28 91.21 150.12 98.79 152.21 105.92 C 153.21 109.21 155.35 112.62 158.96 113.38 C 162.92 114.11 166.14 111.18 169.13 109.07 C 170.13 110.40 171.11 111.73 172.09 113.07 C 166.42 119.40 155.05 120.56 149.37 113.68 C 144.25 107.36 143.93 98.70 143.93 90.93 C 144.25 83.84 145.05 75.60 150.88 70.72 Z" />
<path fill="#c41a85" opacity="1.00" d=" M 226.37 70.31 C 232.68 66.24 240.99 67.73 247.05 71.55 C 246.40 73.09 245.76 74.63 245.11 76.16 C 240.72 74.42 235.73 71.88 231.02 73.99 C 226.66 75.82 226.30 82.28 229.66 85.25 C 233.90 89.28 240.05 90.62 244.09 94.94 C 249.58 100.07 249.30 109.90 243.65 114.79 C 236.70 120.55 226.49 118.57 219.21 114.47 C 219.81 112.85 220.42 111.23 221.03 109.62 C 225.93 111.50 231.31 114.49 236.65 112.50 C 241.76 110.79 242.93 103.47 239.36 99.75 C 234.77 94.70 227.19 93.50 223.08 87.89 C 219.15 82.50 220.48 73.78 226.37 70.31 Z" />
<path fill="#c41a85" opacity="1.00" d=" M 69.11 68.82 C 71.02 68.82 72.92 68.83 74.82 68.85 C 74.84 79.92 74.84 90.99 74.82 102.06 C 74.91 105.33 74.85 109.13 77.44 111.56 C 82.56 115.55 92.77 113.62 93.13 106.11 C 93.35 93.70 93.07 81.29 93.26 68.88 C 95.24 68.83 97.22 68.83 99.21 68.83 C 99.40 79.89 99.22 90.95 99.31 102.00 C 99.30 106.17 99.09 110.86 96.03 114.04 C 92.55 117.93 86.93 118.52 82.01 118.29 C 77.86 118.22 73.25 116.76 71.00 113.02 C 68.50 109.16 68.98 104.37 68.91 99.99 C 69.04 89.60 68.71 79.20 69.11 68.82 Z" />
<path fill="#c41a85" opacity="1.00" d=" M 107.52 68.85 C 109.69 68.82 111.86 68.83 114.02 68.83 C 119.77 81.08 125.85 93.19 131.23 105.60 C 130.90 93.35 131.13 81.09 131.09 68.84 C 132.88 68.83 134.67 68.83 136.47 68.84 C 136.59 85.02 136.51 101.21 136.51 117.39 C 134.64 117.42 132.76 117.48 130.89 117.33 C 128.84 114.11 127.54 110.50 125.87 107.08 C 121.62 97.75 117.04 88.56 113.10 79.09 C 113.27 91.85 113.20 104.62 113.16 117.38 C 111.27 117.40 109.38 117.41 107.49 117.39 C 107.49 101.21 107.43 85.03 107.52 68.85 Z" />
<path fill="#c41a85" opacity="1.00" d=" M 178.83 69.01 C 180.82 68.91 182.81 68.90 184.80 68.76 C 184.95 84.95 184.81 101.15 184.88 117.34 C 182.86 117.40 180.85 117.36 178.84 117.40 C 178.80 101.27 178.81 85.14 178.83 69.01 Z" />
<path fill="#c41a85" opacity="1.00" d=" M 193.46 69.35 C 195.11 68.27 197.44 69.05 199.35 68.79 C 199.55 83.27 199.40 97.75 199.42 112.23 C 205.73 112.27 212.03 112.15 218.33 112.32 C 217.70 114.03 217.07 115.74 216.43 117.44 C 208.77 117.42 201.10 117.47 193.43 117.41 C 193.30 101.39 193.23 85.36 193.46 69.35 Z" />
</g>
</svg>
