<?xml version="1.0" encoding="UTF-8" standalone="no"?><!DOCTYPE svg PUBLIC "-//W3C//DTD SVG 1.1//EN" "http://www.w3.org/Graphics/SVG/1.1/DTD/svg11.dtd"><svg viewBox="0 0 332 159" xmlns="http://www.w3.org/2000/svg" fill-rule="evenodd" clip-rule="evenodd" stroke-linejoin="round" stroke-miterlimit="2"><g fill="#fff" fill-rule="nonzero"><path d="M51.4 0h3.83c5.57.39 10.8 3.6 13.49 8.52 4.66 8.31 4.44 18.24 3.75 27.46-.77 6.16-2.79 12.69-7.72 16.81-5.6 4.56-13.93 4.92-20.29 1.8-6.06-3.24-9.03-10.11-10.06-16.6-1.29-8.62-1.19-17.7 1.75-25.99C38.42 5.51 44.37.33 51.4 0m-1.02 9.23c-4.64 3.64-4.81 10.24-5.25 15.63-.05 6.73-.38 14.02 3.01 20.09 1.75 3.32 6.54 4.28 9.18 1.44 3.37-3.93 3.81-9.45 4.07-14.4.01-6.85.55-14.26-2.98-20.42-1.48-2.82-5.27-4.19-8.03-2.34zM181.71 0h4.2c5.01.55 9.82 3.13 12.57 7.42 4.33 6.61 4.92 14.84 4.84 22.53-.21 7.15-1.27 14.81-5.85 20.58-5.63 6.99-16.76 7.93-24.06 3.12-5.75-3.91-8.04-11.01-8.88-17.61-.85-9.06-.85-18.83 3.51-27.08 2.59-5.15 7.97-8.49 13.67-8.96m-.45 9.04c-2.87 1.5-3.98 4.87-4.72 7.81-1.17 5.56-1.41 11.31-.89 16.97.46 4.13.98 8.57 3.55 12 1.89 2.61 6.06 3.16 8.32.71 3.9-4.12 4.1-10.23 4.36-15.58.03-6.37.25-13.16-2.75-18.98-1.31-2.84-5.01-4.56-7.87-2.93zM1.59 1.61c3.49-.45 7.06-.21 10.58-.2.18 14.73.06 29.47.06 44.2 6.84.04 13.67-.04 20.51.05-.55 3.18-1.21 6.34-2.15 9.43-9.68.19-19.35.06-29.03.07-.21-17.84-.3-35.71.03-53.55zm77.01-.04c3.12-.33 6.28-.2 9.41-.2C92.6 9.72 97 18.18 101.5 26.58c1.86 3.43 3.2 7.12 4.34 10.84-.13-12-.34-24.01-.05-36.01 3.09-.03 6.18-.03 9.27.01-.06 17.91.21 35.82-.15 53.72-2.7.04-5.41.05-8.11.08-5.27-9.47-10.24-19.1-15.43-28.62-1.52-2.77-2.69-5.73-3.89-8.65.41 11.37.12 22.75.23 34.12-.1 1.27.44 3.37-1.59 3.06-2.41.19-4.85.16-7.25-.07-.71-1.58-.37-3.4-.47-5.08.2-16.13-.24-32.29.2-48.41zm44.17-.2c8.64.5 17.67-1.31 25.97 1.76 6.52 2.37 9.53 9.42 10.22 15.85 1.03 8.35 1.02 17.13-1.84 25.13-1.96 5.42-6.9 9.42-12.56 10.39-7.19 1.26-14.54.5-21.8.64-.06-17.92-.08-35.85.01-53.77m10.64 8.68c-.02 12.13.03 24.27-.03 36.4 4.95.44 11.46-.26 13.12-5.89 2.35-8 2.53-17-.09-24.95-1.9-5.36-8.16-5.91-13-5.56zm76.09-8.62c3.16-.06 6.31-.05 9.47-.06 6.24 11.82 13.26 23.31 18.11 35.8-.48-11.91-.19-23.84-.19-35.76 3.02-.03 6.04-.04 9.06.01.07 17.91-.04 35.84-.02 53.76-2.79.01-5.58-.01-8.36-.1-6.17-12.46-13.72-24.25-19.06-37.11.3 12.36.09 24.74.13 37.1-3.03.1-6.05.12-9.08.12-.32-17.91-.2-35.84-.06-53.76z"/><path d="M261.32 33.09c17.71 5.44 35.32 12.26 50.43 23.17 9.33 6.8 17.85 15.92 20.25 27.58v8.8c-1.94 11.36-10.14 20.25-18.94 27.05-13.13 9.89-28.42 16.41-43.89 21.69-34.09 11.3-70 15.79-105.74 17.62h-35.02c-43.43-1.81-87.55-7.61-127.77-24.92 11.64 2.57 23.17 5.65 34.97 7.47 40.69 6.89 82.22 8.27 123.36 5.4 35.22-2.81 70.64-8.39 103.74-21.19 13.13-5.29 26.17-11.68 36.6-21.44 6.36-6.1 11.8-14.21 11.61-23.35-.03-9.05-5.54-17-11.88-23-10.84-10.03-24.39-16.46-37.99-21.86.07-.76.2-2.27.27-3.02z"/></g><path d="M8.55 69.61c6.24-3.56 14.07-1.31 19.04 3.4-.91 1.4-1.83 2.79-2.77 4.17-3.4-2.12-7.15-5.47-11.46-3.97-4.19 1.19-5.73 5.86-6.26 9.72-.95 7.14-.9 14.5.69 21.54.94 3.75 2.97 8.05 7.15 8.9 3.98.78 7.2-2.28 10.28-4.25.95 1.34 1.91 2.67 2.88 4-5.19 5.48-14.42 7.21-20.66 2.54C1.67 111.07.53 103.15 0 96.25v-7.96c.64-6.75 2.04-15.01 8.55-18.68zm33.83-1.13c5.45-1.59 12.07-.16 15.53 4.57 4.25 5.7 4.81 13.12 4.97 19.98-.13 6.89-.66 14.32-4.85 20.08-5.5 7.67-19.01 6.88-23.46-1.52-4.35-8.11-4.21-17.8-3.23-26.71.83-6.7 3.92-14.41 11.04-16.4m1.91 4.74c-3.44 1.05-5.2 4.63-5.88 7.91-1.44 7.19-1.38 14.62-.45 21.87.45 2.84 1.16 5.8 3.06 8.05 3.15 3.56 9.7 3.27 12.25-.86 2.44-3.89 2.8-8.66 2.94-13.13-.08-6.65.61-13.67-2.33-19.86-1.6-3.53-5.97-5.27-9.59-3.98zm106.59-2.5c6.15-4.85 15.38-3.08 20.58 2.34a139.3 139.3 0 01-2.64 4.17c-3.4-2.2-7.2-5.58-11.55-4-4.51 1.37-5.77 6.54-6.34 10.65-.65 7.33-.81 14.91 1.28 22.04 1 3.29 3.14 6.7 6.75 7.46 3.96.73 7.18-2.2 10.17-4.31 1 1.33 1.98 2.66 2.96 4-5.67 6.33-17.04 7.49-22.72.61-5.12-6.32-5.44-14.98-5.44-22.75.32-7.09 1.12-15.33 6.95-20.21zm75.49-.41c6.31-4.07 14.62-2.58 20.68 1.24-.65 1.54-1.29 3.08-1.94 4.61-4.39-1.74-9.38-4.28-14.09-2.17-4.36 1.83-4.72 8.29-1.36 11.26 4.24 4.03 10.39 5.37 14.43 9.69 5.49 5.13 5.21 14.96-.44 19.85-6.95 5.76-17.16 3.78-24.44-.32.6-1.62 1.21-3.24 1.82-4.85 4.9 1.88 10.28 4.87 15.62 2.88 5.11-1.71 6.28-9.03 2.71-12.75-4.59-5.05-12.17-6.25-16.28-11.86-3.93-5.39-2.6-14.11 3.29-17.58zM69.11 68.82c1.91 0 3.81.01 5.71.03.02 11.07.02 22.14 0 33.21.09 3.27.03 7.07 2.62 9.5 5.12 3.99 15.33 2.06 15.69-5.45.22-12.41-.06-24.82.13-37.23 1.98-.05 3.96-.05 5.95-.05.19 11.06.01 22.12.1 33.17-.01 4.17-.22 8.86-3.28 12.04-3.48 3.89-9.1 4.48-14.02 4.25-4.15-.07-8.76-1.53-11.01-5.27-2.5-3.86-2.02-8.65-2.09-13.03.13-10.39-.2-20.79.2-31.17zm38.41.03c2.17-.03 4.34-.02 6.5-.02 5.75 12.25 11.83 24.36 17.21 36.77-.33-12.25-.1-24.51-.14-36.76 1.79-.01 3.58-.01 5.38 0 .12 16.18.04 32.37.04 48.55-1.87.03-3.75.09-5.62-.06-2.05-3.22-3.35-6.83-5.02-10.25-4.25-9.33-8.83-18.52-12.77-27.99.17 12.76.1 25.53.06 38.29-1.89.02-3.78.03-5.67.01 0-16.18-.06-32.36.03-48.54zm71.31.16c1.99-.1 3.98-.11 5.97-.25.15 16.19.01 32.39.08 48.58-2.02.06-4.03.02-6.04.06-.04-16.13-.03-32.26-.01-48.39zm14.63.34c1.65-1.08 3.98-.3 5.89-.56.2 14.48.05 28.96.07 43.44 6.31.04 12.61-.08 18.91.09-.63 1.71-1.26 3.42-1.9 5.12-7.66-.02-15.33.03-23-.03-.13-16.02-.2-32.05.03-48.06z" fill="#fff" fill-rule="nonzero"/></svg>
