<?xml version="1.0" standalone="no"?>
<!DOCTYPE svg PUBLIC "-//W3C//DTD SVG 20010904//EN"
 "http://www.w3.org/TR/2001/REC-SVG-20010904/DTD/svg10.dtd">
<svg version="1.0" xmlns="http://www.w3.org/2000/svg"
 width="3402.000000pt" height="3402.000000pt" viewBox="0 0 3402.000000 3402.000000"
 preserveAspectRatio="xMidYMid meet">
<metadata>
Created by potrace 1.11, written by Peter Selinger 2001-2013
</metadata>
<g transform="translate(0.000000,3402.000000) scale(0.100000,-0.100000)"
fill="#000000" stroke="none">
<path d="M12680 22276 l0 -2786 793 0 c824 0 913 4 1122 46 961 192 1559 925
1714 2099 46 346 53 861 16 1195 -122 1120 -603 1820 -1441 2099 -148 49 -264
76 -464 108 -90 14 -222 17 -922 20 l-818 4 0 -2785z m1643 1819 c597 -78 868
-423 963 -1225 22 -182 31 -818 15 -1046 -51 -733 -228 -1140 -584 -1338 -194
-108 -411 -146 -834 -146 l-223 0 0 1885 0 1885 274 0 c187 0 312 -5 389 -15z"/>
<path d="M8130 22250 l0 -2780 439 0 439 0 6 78 c14 181 28 2822 17 3343 -6
290 -14 534 -17 544 -5 13 -2 16 11 14 14 -3 229 -445 812 -1669 436 -916 862
-1809 946 -1985 l153 -320 422 -3 422 -2 0 2780 0 2780 -419 0 -419 0 -6 -172
c-20 -519 -23 -3660 -4 -3793 2 -12 -3 -20 -11 -20 -9 0 -346 698 -912 1890
-494 1040 -921 1936 -948 1993 l-51 102 -440 0 -440 0 0 -2780z"/>
<path d="M21550 22250 l0 -2780 439 0 439 0 6 123 c14 281 27 2759 16 3282 -5
292 -13 541 -16 554 -6 18 -3 22 11 20 13 -3 280 -554 964 -1991 l946 -1987
423 -1 422 0 0 2780 0 2780 -419 0 -419 0 -6 -142 c-15 -326 -26 -2730 -16
-3263 6 -297 11 -549 13 -560 1 -12 -4 -20 -12 -20 -9 0 -353 713 -961 1990
l-946 1990 -442 3 -442 2 0 -2780z"/>
<path d="M340 22175 l0 -2775 1530 0 1530 0 0 465 0 465 -1015 0 -1015 0 0
2310 0 2310 -515 0 -515 0 0 -2775z"/>
<path d="M5280 24940 c-585 -80 -1046 -424 -1339 -999 -170 -332 -273 -711
-328 -1197 -25 -223 -25 -867 0 -1097 87 -794 322 -1374 712 -1762 325 -322
731 -485 1212 -485 611 0 1112 276 1460 803 81 123 197 361 257 529 281 782
299 1985 40 2789 -131 408 -301 699 -553 949 -137 135 -248 216 -412 300 -137
70 -279 119 -435 151 -89 18 -150 22 -329 25 -121 1 -249 -1 -285 -6z m497
-688 c331 -116 568 -504 672 -1102 73 -415 87 -1025 36 -1490 -86 -779 -323
-1247 -704 -1388 -90 -33 -266 -42 -361 -18 -343 86 -590 439 -709 1013 -65
316 -86 565 -86 1028 1 398 12 566 56 825 97 571 304 952 594 1095 111 55 162
65 310 62 101 -3 144 -8 192 -25z"/>
<path d="M18620 24943 c-95 -12 -287 -56 -366 -84 -353 -123 -659 -370 -880
-710 -241 -370 -391 -852 -450 -1449 -22 -215 -25 -734 -6 -950 52 -594 194
-1097 412 -1464 344 -578 871 -886 1513 -886 478 0 889 164 1209 483 392 390
633 989 715 1782 25 234 24 839 0 1065 -125 1146 -590 1882 -1348 2134 -191
64 -287 78 -539 81 -124 2 -241 1 -260 -2z m440 -684 c215 -59 376 -213 510
-484 126 -255 200 -558 240 -975 18 -189 24 -645 11 -865 -59 -991 -329 -1565
-791 -1681 -89 -23 -270 -15 -357 16 -406 141 -658 682 -722 1550 -35 461 -16
963 50 1330 51 288 130 528 232 705 125 217 299 365 483 409 92 22 255 20 344
-5z"/>
<path d="M26760 21561 c8 -5 65 -29 125 -54 289 -119 772 -344 1115 -520 1856
-952 3094 -1976 3570 -2952 156 -321 209 -531 256 -1015 23 -237 23 -629 0
-805 -54 -419 -193 -767 -425 -1070 -185 -241 -614 -675 -966 -976 -941 -805
-2229 -1539 -3675 -2096 -1699 -654 -3963 -1208 -6620 -1618 -1645 -254 -3391
-440 -4455 -474 -1032 -34 -5247 -50 -5815 -23 -1297 62 -3089 233 -5108 487
-1337 169 -2355 346 -3537 615 -148 34 -312 73 -364 86 -52 13 -96 22 -98 21
-11 -12 2328 -755 2902 -922 534 -156 900 -256 1142 -311 1016 -233 2029 -417
3348 -608 1026 -149 1207 -173 1545 -206 768 -74 1601 -117 2960 -152 621 -16
3338 -16 4125 0 1250 26 1794 42 2210 67 1011 62 2044 183 3225 380 739 123
1642 304 2500 500 222 51 292 67 705 166 758 182 1564 403 2095 574 80 26 167
54 194 62 197 60 784 272 1071 388 562 226 1548 751 2180 1160 792 512 1480
1053 1887 1485 558 590 875 1301 997 2235 41 312 37 506 -15 765 -54 272 -193
605 -364 878 -294 468 -779 968 -1400 1439 -940 714 -2273 1427 -3740 2003
-566 222 -1158 418 -1442 479 -104 22 -154 27 -128 12z"/>
<path d="M1657 18180 c-344 -33 -615 -158 -847 -390 -252 -252 -433 -605 -544
-1058 -165 -675 -165 -1633 0 -2301 106 -428 275 -754 518 -997 207 -208 404
-315 684 -374 139 -30 393 -37 532 -16 230 35 477 124 707 254 l83 47 0 338
c0 185 -3 337 -7 337 -3 0 -14 -6 -22 -14 -80 -70 -451 -294 -605 -366 -158
-73 -238 -94 -356 -94 -126 0 -197 17 -324 78 -345 164 -525 452 -615 983 -92
538 -92 1466 0 2008 39 232 87 392 162 538 85 167 256 327 443 413 143 66 314
96 434 75 208 -37 505 -181 756 -366 l74 -55 -2 327 -3 328 -120 62 c-380 197
-667 270 -948 243z"/>
<path d="M4723 18180 c-191 -20 -419 -109 -568 -221 -400 -303 -685 -926 -779
-1704 -51 -417 -49 -931 5 -1345 69 -535 222 -973 454 -1300 264 -373 586
-562 981 -577 401 -16 737 149 1013 496 309 388 479 874 547 1561 25 245 25
778 0 1020 -98 976 -459 1693 -986 1956 -191 96 -438 138 -667 114z m319 -545
c324 -68 561 -353 706 -850 181 -615 188 -1687 16 -2344 -139 -531 -384 -849
-706 -915 -282 -58 -552 54 -738 305 -178 240 -290 588 -352 1089 -20 166 -22
231 -23 640 0 468 5 568 45 833 97 641 330 1077 643 1204 128 52 278 66 409
38z"/>
<path d="M16305 18180 c-524 -46 -920 -337 -1184 -867 -182 -367 -285 -801
-322 -1363 -13 -197 -7 -729 11 -905 46 -462 142 -840 290 -1140 207 -421 487
-683 861 -805 266 -87 587 -93 878 -15 172 46 425 154 559 238 l42 27 0 335
c0 184 -2 335 -5 335 -3 0 -60 -38 -128 -84 -241 -165 -493 -301 -672 -363
-70 -24 -94 -27 -195 -27 -97 1 -128 5 -200 28 -244 79 -459 265 -575 496
-100 200 -166 494 -207 930 -17 186 -17 1017 0 1210 40 440 105 738 205 937
112 222 345 405 602 474 119 32 272 30 385 -4 220 -66 440 -186 712 -386 18
-13 18 -5 16 315 l-3 329 -100 52 c-55 29 -163 79 -240 112 -293 124 -492 163
-730 141z"/>
<path d="M23907 18109 c-336 -24 -621 -112 -847 -261 -82 -54 -204 -175 -255
-253 -116 -178 -175 -426 -162 -685 13 -255 73 -437 209 -632 192 -276 434
-477 968 -803 487 -298 764 -537 875 -755 120 -236 104 -575 -36 -784 -126
-189 -373 -311 -704 -347 -135 -14 -386 -7 -545 17 -197 29 -474 113 -618 189
l-64 34 -20 -47 c-12 -26 -58 -132 -104 -237 l-82 -190 63 -32 c75 -38 259
-101 405 -138 295 -75 779 -103 1120 -64 604 68 1038 368 1189 824 46 139 62
237 68 400 14 387 -90 660 -374 977 -152 170 -389 362 -673 542 -523 334 -687
454 -845 618 -117 121 -161 186 -203 296 -24 61 -26 81 -27 212 0 169 15 226
92 342 156 238 444 331 926 300 289 -18 541 -70 755 -156 73 -30 84 -32 91
-17 11 21 181 430 181 435 0 9 -151 66 -261 100 -216 65 -433 99 -739 116
-194 11 -227 11 -383 -1z"/>
<path d="M19840 15635 l0 -2445 1195 0 1195 0 0 225 0 225 -915 0 -915 0 0
2220 0 2220 -280 0 -280 0 0 -2445z"/>
<path d="M7160 16133 c0 -2065 -2 -1990 51 -2152 129 -400 497 -718 973 -841
162 -41 319 -60 509 -60 365 1 662 77 936 242 286 171 453 370 541 645 68 212
64 77 67 2181 l4 1902 -291 0 -290 0 -2 -1888 -3 -1887 -48 -100 c-102 -211
-257 -406 -394 -496 -88 -57 -195 -103 -322 -137 -84 -22 -117 -25 -261 -26
-142 0 -177 3 -254 23 -150 39 -279 101 -382 185 -85 68 -130 158 -187 371
l-32 120 -3 1918 -2 1917 -305 0 -305 0 0 -1917z"/>
<path d="M11110 15620 l0 -2430 265 0 265 0 0 1846 c0 1738 1 1845 17 1842 12
-2 297 -575 918 -1845 l900 -1843 278 0 277 0 0 2430 0 2430 -275 0 -275 0 -2
-1845 c-2 -1221 -6 -1845 -13 -1846 -5 -1 -417 829 -915 1844 l-905 1847 -267
0 -268 0 0 -2430z"/>
<path d="M18340 15620 l0 -2430 320 0 320 0 0 2430 0 2430 -320 0 -320 0 0
-2430z"/>
</g>
</svg>
